<svg xmlns="http://www.w3.org/2000/svg" viewBox="0 0 256 256" enable-background="new 0 0 256 256"><style type="text/css">.st0{fill:#4F9AD4;}</style><path class="st0" d="M40.5 109.6s-1.8-4.4-1.8-9.8 1.8-9.8 1.8-9.8c-.3 0-36.9 9.8-36.9 9.8s36.6 9.8 36.9 9.8zM213.9 90.1s1.8 4.4 1.8 9.8-1.8 9.8-1.8 9.8c.3 0 36.9-9.8 36.9-9.8s-36.6-9.8-36.9-9.8z"/><circle class="st0" cx="89.3" cy="99.3" r="11.1"/><path class="st0" d="M194.8 85.6c1.4 0 2.6 1.2 2.6 2.6v23.3c0 1.4-1.2 2.6-2.6 2.6h-135.1c-1.4 0-2.6-1.2-2.6-2.6v-23.3c0-1.4 1.2-2.6 2.6-2.6h135.1m0-13.2h-135.1c-8.7 0-15.8 7.1-15.8 15.8v23.3c0 8.7 7.1 15.8 15.8 15.8h135.1c8.7 0 15.8-7.1 15.8-15.8v-23.3c0-8.7-7.1-15.8-15.8-15.8zM126.2 167.2c-20 0-36.9 30.2-36.9 66 0 4.1.2 8.1.6 12 10.3 3.2 22.8 5.2 36.3 5.2s26-1.9 36.3-5.2c.4-3.9.6-7.9.6-12 .1-35.8-16.9-66-36.9-66zm-22.2 64.4c0 2.4-2 4.4-4.4 4.4-2.4 0-4.4-2-4.4-4.4v-15.2c0-2.4 2-4.4 4.4-4.4 2.4 0 4.4 2 4.4 4.4v15.2zm17.5 0c0 2.4-2 4.4-4.4 4.4-2.4 0-4.4-2-4.4-4.4v-15.2c0-2.4 2-4.4 4.4-4.4 2.4 0 4.4 2 4.4 4.4v15.2zm17.5 0c0 2.4-2 4.4-4.4 4.4-2.4 0-4.4-2-4.4-4.4v-15.2c0-2.4 2-4.4 4.4-4.4 2.4 0 4.4 2 4.4 4.4v15.2zm17.6 0c0 2.4-2 4.4-4.4 4.4-2.4 0-4.4-2-4.4-4.4v-15.2c0-2.4 2-4.4 4.4-4.4 2.4 0 4.4 2 4.4 4.4v15.2zM63.3 116v11.3h91.2c1.7 0 3.1 1.4 3.1 3.1 0 1.7-1.4 3.1-3.1 3.1h-91.2v88.8c0 7.6 6.7 14.4 17.6 19.4-.2-2.8-.3-5.6-.3-8.5 0-41.9 20-74.7 45.6-74.7s45.6 32.8 45.6 74.7c0 2.9-.1 5.7-.3 8.5 10.9-5 17.6-11.9 17.6-19.4v-106.3h-125.8zM126.2 58.9c-2.2 0-4-1.8-4-4s1.8-4 4-4h62.4c-.7-2.2-1.5-4.3-2.4-6.4h-37.1c-3.7 0-6.6-3-6.6-6.6 0-3.7 3-6.6 6.6-6.6h29.5c-12-16.2-31-26.4-52.3-26.4-33.6-.1-61.2 25-65.3 59.1h130.6c-.2-1.7-.5-3.4-.8-5.1h-64.6zm4.6-27.9c3.8 0 6.9 3.1 6.9 6.9 0 3.8-3.1 6.9-6.9 6.9-3.8 0-6.9-3.1-6.9-6.9 0-3.8 3.1-6.9 6.9-6.9z"/></svg>